<?xml version="1.0" encoding="utf-8"?>
<!-- Generator: Adobe Illustrator 27.5.0, SVG Export Plug-In . SVG Version: 6.00 Build 0)  -->
<svg version="1.1" xmlns="http://www.w3.org/2000/svg" xmlns:xlink="http://www.w3.org/1999/xlink"
	x="0px" y="0px"
	viewBox="0 0 500 500" style="enable-background:new 0 0 500 500;" xml:space="preserve">
<g id="OBJECTS">
	<ellipse style="fill:#DFE0D9;" cx="240" cy="412.22" rx="92" ry="17"/>
	<ellipse style="fill:#DFE0D9;" cx="240" cy="433.887" rx="148.333" ry="18.333"/>
	<ellipse style="fill:#DFE0D9;" cx="64.667" cy="416.22" rx="34.897" ry="7.667"/>
	<ellipse style="fill:#DFE0D9;" cx="429.333" cy="416.22" rx="34.897" ry="7.667"/>
	<path style="fill:#A47070;" d="M179.5,322.387c0,0-17,87.5-17,90s4.5,4,7,2s23.5-88,23.5-88L179.5,322.387z"/>
	<path style="fill:#A47070;" d="M234.159,330.235c0,0,11.658,88.37,12.451,90.741c0.794,2.371,5.537,2.365,7.273-0.326
		c1.736-2.69-5.653-90.908-5.653-90.908L234.159,330.235z"/>
	<path style="fill:#A47070;" d="M278.172,316.119c0,0,10.904,82.658,11.647,84.875c0.742,2.217,5.179,2.212,6.803-0.305
		c1.623-2.516-5.287-85.032-5.287-85.032L278.172,316.119z"/>
	<path style="fill:#A47070;" d="M208.604,321.241c0,0-14.77,76.025-14.77,78.197c0,2.172,3.91,3.475,6.082,1.738
		c2.172-1.738,20.418-76.459,20.418-76.459L208.604,321.241z"/>
	<path style="fill:#BF997E;" d="M206.333,168.887c-44.265,1.265-46.833,59-43.333,96.5s-0.5,49.5,9.5,59.5s62.5,12.5,84,12.5
		s51.5-12.5,35.5-23s-43.5-25.5-43.5-25.5S293.833,166.387,206.333,168.887z"/>
	<g>
		<path style="fill:#276189;" d="M205,403.22c-2.408-1.82-7.333,2.333-8,8.667c-0.667,6.333,17,17.667,23.667,15.333
			C227.333,424.887,220,414.554,205,403.22z"/>
		<path style="fill:#276189;" d="M277.279,403.316c-3.013-0.19-5.246,7.509-2.311,13.16c2.936,5.651,26.59,5.7,30.865,0.078
			C310.109,410.932,296.041,404.501,277.279,403.316z"/>
		<path style="fill:#F8AC7F;" d="M198.832,145.185c0,3.614-2.93,6.544-6.544,6.544c-3.614,0-6.544-2.93-6.544-6.544
			s2.93-6.544,6.544-6.544C195.902,138.64,198.832,141.57,198.832,145.185z"/>
		<path style="fill:#F8AC7F;" d="M247.203,145.185c0,3.614-2.93,6.544-6.544,6.544s-6.544-2.93-6.544-6.544s2.93-6.544,6.544-6.544
			S247.203,141.57,247.203,145.185z"/>
		<path style="fill:#F8AC7F;" d="M208.916,164.219c0,0,0,9.791-6.415,9.96c-3.701,0.097,1.351,17.051,1.351,17.051l20.258-0.338
			l10.129-4.727l-4.896-12.492c0,0-6.246-3.376-5.571-10.129L208.916,164.219z"/>
		<path style="fill:#FDD3AF;" d="M213.981,381.318c0,0-11.142,20.596-11.48,23.972c-0.338,3.376,7.428,7.428,10.467,6.077
			c3.039-1.35,16.206-21.946,16.206-21.946L213.981,381.318z"/>
		<path style="fill:#FDD3AF;" d="M275.489,380.955c0,0-1.172,23.387-0.02,26.579c1.151,3.192,9.905,3.499,12.064,0.97
			c2.159-2.529,5.159-26.789,5.159-26.789L275.489,380.955z"/>
		<path style="fill:#183543;" d="M250.861,282.006c0,0,36.942,10.462,46.523,22.747c9.58,12.285-4.425,86.152-5.05,88.968
			c-0.625,2.816-15.567,1.297-18.667-1.333c-3.1-2.631,1.785-62.218-0.167-66.375c-1.952-4.157-61.389-26.251-61.389-26.251
			l13.251-17.218L250.861,282.006z"/>
		<path style="fill:#183543;" d="M178.667,282.887c0,0-8.241,29.216,7.29,36.306c15.531,7.09,42.879,7.766,48.619,11.479
			c5.74,3.714-24.563,48.624-25.576,55.714c-1.013,7.09,11.444,12.846,15.833,11.833c4.389-1.013,44.519-58.769,44.182-75.651
			c-0.338-16.882-44.568-32.075-53.684-37.477C206.215,279.69,178.667,282.887,178.667,282.887z"/>
		<path style="fill:#4195D1;" d="M251.88,180.51c14.434,4.558,27.095,85.59,27.095,85.59l-27.095,0.253l-6.584-69.384L251.88,180.51
			z"/>
		<path style="fill:#4195D1;" d="M202.501,174.18c0,0,1.455,11.902,13.927,11.902c10.042,0,12.306-8.469,12.79-11.414
			c0.102-0.62,0.125-0.994,0.125-0.994s21.524,6.077,22.537,6.837c0,0,5.453,90.377,7.787,102.377c0,0-49,26.667-85.667,1.667
			c0,0,9.509-101.764,10.016-103.537L202.501,174.18z"/>
		<path style="fill:#FDD3AF;" d="M216.378,107.104c-35.282,0-30.73,63.167,0,63.167S252.514,107.104,216.378,107.104z"/>
		<path style="fill:#FDD3AF;" d="M189.504,243.223c0,0,6.921-0.675,10.298,0.338c3.376,1.013,11.986,9.96,12.155,12.661
			c0.169,2.701-3.545,1.013-3.545,1.013s-8.388-4.848-10.245-4.848c-1.857,0-4.779,2.147-10.35,0.965
			C182.245,252.171,186.972,243.392,189.504,243.223z"/>
		<path style="fill:#4195D1;" d="M184.016,181.017c-23.297,10.636-48.113,48.366-49.379,57.229s47.353,18.485,52.671,17.979
			c0,0,3.798-15.194,3.798-15.953c0-0.76-23.297-9.116-27.095-11.902c-3.798-2.785,19.95-16.31,22.989-16.816
			c3.039-0.507,3.346-21.927,3.346-21.927L184.016,181.017z"/>
		<path style="fill:#56375A;" d="M209.17,122.469c0,0,16.692,9.105,26.177,8.726c0,0,0.759,12.14,5.691,11.761
			c4.932-0.379,9.484-20.107,0-36.041s-32.626-8.346-40.214-0.379c0,0-12.899,1.897-15.175,14.796
			c-2.276,12.899,1.138,20.866,6.45,21.245c5.311,0.379,5.311-14.416,5.311-14.416S205.756,128.919,209.17,122.469z"/>
		<path style="fill:#367EAF;" d="M180.881,235.454c-0.431,0.067-0.377,0.62-0.107,0.821c1.234,0.917,2.999,1.333,4.358,2.093
			c0.86,0.481,1.654,1.049,2.348,1.751c0.51,0.516,0.722,1.202,1.381,1.578c0.407,0.233,1.072,0.133,1.283-0.336
			C191.678,237.938,183.285,235.079,180.881,235.454z"/>
		<path style="fill:#367EAF;" d="M185.213,239.448c-0.395-0.141-0.898,0.155-0.985,0.559c-0.424,1.969-0.347,3.876-1.009,5.845
			c-0.677,2.014-2.338,4.113-2.648,6.181c-0.312,2.085,1.744,3.274,3.402,1.98c2.046-1.597,2.712-5.87,3.006-8.272
			C187.218,243.785,187.586,240.296,185.213,239.448z"/>
		<path style="fill:#315669;" d="M228.437,392.185c-1.575-2.663-5.701-3.393-8.382-4.527c-3.343-1.414-5.596-3.532-8.087-6.073
			c-0.572-0.584-1.496-0.125-1.534,0.635c-0.193,3.839,2.999,6.641,5.848,8.693c2.74,1.972,7.432,4.985,10.929,4.285
			C228.521,394.936,229.076,393.265,228.437,392.185z"/>
		<path style="fill:#315669;" d="M290.411,389.81c-1.847-1.982-4.728-1.193-7.197-1.061c-2.964,0.157-5.973-0.435-8.88-0.192
			c-0.44,0.037-0.908,0.56-0.573,0.999c1.758,2.312,4.698,2.842,7.464,3.15c2.852,0.318,6.856,1.196,9.187-0.741
			C291.066,391.42,290.936,390.374,290.411,389.81z"/>
		<path style="fill:#3983B7;" d="M218.563,413.427c-0.061-0.144-0.121-0.287-0.182-0.431c-0.351-0.441-0.378-0.485-0.082-0.134
			c-0.227-0.944-1.59-1.359-2.252-0.595c0.442-0.158,0.397-0.131-0.134,0.081c-0.215,0.13-0.399,0.294-0.551,0.491
			c-0.379,0.426-0.472,0.923-0.67,1.389c-0.148,0.348-0.119,0.288-0.249,0.425c0.178-0.189-0.204,0.095-0.455,0.288
			c-0.018,0.005-0.024,0.006-0.046,0.012c-0.121,0.026-0.243,0.05-0.366,0.069c-0.346,0.061-0.698,0.095-1.046,0.143
			c-0.906,0.126-1.72,0.164-2.306,0.933c-0.233,0.306-0.13,0.843,0.14,1.089c0.687,0.624,1.725,0.528,2.606,0.663
			c0.46,0.071,0.921,0.134,1.385,0.168c0.125,0.009,0.866,0.167,1.31,0.006c0.96-0.348,1.579-0.886,2.185-1.696
			c0.347-0.463,0.579-1.061,0.748-1.606C218.736,414.285,218.622,413.864,218.563,413.427z"/>
		<path style="fill:#3983B7;" d="M297.707,407.027c-0.518-1.787-1.889-3.951-4.041-3.761c-1.066,0.095-1.821,0.961-1.563,2.052
			c0.179,0.757,0.627,1.395,1.066,2.037c-0.278,0.315-0.559,0.628-0.857,0.935c-0.712,0.732-1.534,1.36-1.865,2.353
			c-0.199,0.599,0.321,1.125,0.885,1.162c0.926,0.061,1.695-0.44,2.474-0.884c0.982-0.559,1.927-1.084,2.95-1.56
			C297.579,408.979,297.947,407.852,297.707,407.027z"/>
		<path style="fill:#315669;" d="M247.458,295.102c-0.494-0.194-0.842,0.636-0.361,0.857c4.117,1.893,8.045,4.073,11.827,6.569
			c2.245,1.482,4.276,3.21,6.146,5.135c3.26,3.357,3.193,6.952,2.816,11.224c-0.067,0.757,1.138,1.094,1.456,0.394
			C275.05,306.715,256.268,298.571,247.458,295.102z"/>
		<path style="fill:#367EAF;" d="M228.601,174.076c-1.236,6.713-5.729,11.531-12.892,10.108c-5.343-1.061-10.248-4.428-11.85-9.718
			c-0.416-1.375-2.805-1.641-3.051,0c-1.267,8.442,7.489,13.612,14.614,15.07c9.706,1.986,16.483-5.693,16.709-14.982
			C232.179,172.558,228.972,172.059,228.601,174.076z"/>
		<path style="fill:#6B4870;" d="M239.401,124.48c-10.744-0.005-20.978-1.344-29.031-9.321c-0.732-0.725-1.776,0.354-1.117,1.117
			c6.526,7.556,20.451,14.469,30.457,10.489C240.873,126.302,240.798,124.481,239.401,124.48z"/>
		<path style="fill:#6B4870;" d="M232.846,120.095c-2.475,0.076-4.672-0.182-6.923-1.281c-2.089-1.02-3.942-2.538-5.876-3.814
			c-0.592-0.391-1.233,0.481-0.745,0.965c3.494,3.462,8.477,8.236,13.824,6.199C234.179,121.763,234.109,120.056,232.846,120.095z"
			/>
		<path style="fill:#6B4870;" d="M204.835,115.826c-0.27-0.549-1.109-0.158-0.963,0.406c1.156,4.455-7.25,7.939-10.378,9.29
			c-0.71,0.307-0.365,1.557,0.399,1.472c3.151-0.349,5.812-2.161,8.184-4.172C204.084,121.122,206.164,118.528,204.835,115.826z"/>
		<path style="fill:#6B4870;" d="M200.707,116.093c-0.657,1.934-2.079,3.094-3.627,4.31c-0.634,0.498,0.051,1.55,0.769,1.32
			c2.227-0.712,3.685-3.069,4.213-5.257C202.275,115.58,200.997,115.24,200.707,116.093z"/>
		<path style="fill:#56375A;" d="M208.867,136.174c-1.329,0.117-2.475,0.874-3.437,1.754c-0.776,0.71,0.214,1.89,1.09,1.413
			c0.677-0.368,1.358-0.583,2.12-0.691c0.829-0.117,1.492,0.467,2.295,0.362c0.688-0.09,1.098-0.572,0.973-1.278
			C211.67,136.38,210.019,136.073,208.867,136.174z"/>
		<path style="fill:#56375A;" d="M210.497,144.322c-0.816-1.388-2.924-0.765-2.964,0.803c-0.004,0.169,0.007,0.309,0.022,0.442
			c-0.09,0.701-0.031,1.435-0.108,2.138c-0.174,1.577,2.326,2.214,2.992,0.811C211.008,147.317,211.196,145.51,210.497,144.322z"/>
		<path style="fill:#56375A;" d="M227.502,135.987c1.329,0.117,2.475,0.874,3.437,1.755c0.776,0.71-0.214,1.889-1.09,1.413
			c-0.678-0.368-1.358-0.583-2.12-0.691c-0.829-0.117-1.492,0.467-2.295,0.362c-0.688-0.09-1.098-0.572-0.973-1.278
			C224.699,136.193,226.351,135.885,227.502,135.987z"/>
		<path style="fill:#56375A;" d="M228.85,144.322c-0.816-1.388-2.924-0.765-2.964,0.803c-0.004,0.169,0.007,0.309,0.022,0.442
			c-0.09,0.701-0.031,1.435-0.108,2.138c-0.174,1.577,2.325,2.214,2.992,0.811C229.361,147.317,229.548,145.51,228.85,144.322z"/>
		<path style="fill:#F8AC7F;" d="M219.562,152.538c-1.072,0.24-1.967,0.469-3.033,0.042c-0.689-0.276-1.003,0.751-0.473,1.123
			c1.262,0.888,3.257,1.269,4.25-0.198C220.65,152.995,220.086,152.42,219.562,152.538z"/>
		<path style="fill:#FFFFFF;" d="M222.12,158.346c-2.166-1.16-4.535,1.217-6.83,0.152c-1.189-0.552-2.502,0.883-1.463,1.896
			c1.222,1.19,2.67,1.729,4.37,1.681c1.482-0.041,3.702-0.355,4.42-1.837C222.935,159.58,222.822,158.721,222.12,158.346z"/>
	</g>
	<g>
		<path style="fill:#F69A87;" d="M302,206.637c0,0-1.25-3.25-1.5-4.833s4-2.667,4.667-1.417c0.667,1.25,2,5.322,2,5.322L302,206.637
			z"/>
		<path style="fill:#EF504F;" d="M120.963,243.31v9.622c0,2.797,2.268,5.064,5.064,5.064h8.61c2.797,0,5.064-2.267,5.064-5.064
			v-9.622c0-2.797-2.267-5.064-5.064-5.064h-8.61C123.23,238.246,120.963,240.513,120.963,243.31z M130.585,253.186h-0.507
			c-2.797,0-5.064-2.268-5.064-5.064l0,0c0-2.797,2.268-5.064,5.064-5.064h0.507c2.797,0,5.064,2.267,5.064,5.064l0,0
			C135.65,250.918,133.382,253.186,130.585,253.186z"/>
		<rect x="130.079" y="233.688" style="fill:#EF504F;" width="22.284" height="30.134"/>
		<polygon style="fill:#0E4261;" points="314.68,235.713 314.427,197.476 320.504,197.476 318.985,237.992 		"/>
		<polygon style="fill:#FFC52B;" points="318.985,237.992 328.607,192.159 336.964,193.931 326.075,240.018 		"/>
		<polygon style="fill:#EF504F;" points="312.654,245.842 303.285,211.657 308.25,210.012 316.199,244.829 		"/>
		<polygon style="fill:#F9A52E;" points="339.749,239.765 339.749,179.497 360.26,179.497 360.26,239.512 		"/>
		<polygon style="fill:#5E7396;" points="336.964,265.341 336.964,205.073 363.046,205.073 363.046,265.087 		"/>
		<path style="fill:#3D95D0;" d="M309.965,264.108l-3.695-29.098c-0.106-0.836,0.545-1.576,1.388-1.576h22.904
			c0.843,0,1.495,0.74,1.388,1.577l-3.696,28.982c-0.089,0.695-0.677,1.217-1.378,1.222l-15.514,0.116
			C310.655,265.337,310.055,264.811,309.965,264.108z"/>
		<path style="fill:#9CACB5;" d="M172.752,265.341h42.279c1.611,0,2.917-1.306,2.917-2.917v-3.789c0-1.611-1.306-2.917-2.917-2.917
			h-42.279c-1.611,0-2.917,1.306-2.917,2.917v3.789C169.835,264.035,171.141,265.341,172.752,265.341z"/>
		<path style="fill:#B9CCD6;" d="M214.528,265.341h69.637c1.645,0,3.014-1.264,3.145-2.904l3.547-44.335
			c0.147-1.836-1.303-3.407-3.145-3.407h-69.637c-1.645,0-3.014,1.264-3.145,2.903l-3.547,44.335
			C211.236,263.77,212.687,265.341,214.528,265.341z"/>
		<path style="fill:#A47070;" d="M119.039,268.211c0,0-16.35,162.739-15.805,166.791c0.545,4.052,4.905,4.052,7.085,0.675
			c2.18-3.376,23.98-165.44,23.98-165.44L119.039,268.211z"/>
		<path style="fill:#A47070;" d="M148.075,268.211c0,0-16.35,151.745-15.805,155.523s4.905,3.778,7.085,0.63
			c2.18-3.148,23.98-154.264,23.98-154.264L148.075,268.211z"/>
		<path style="fill:#A47070;" d="M361.577,268.211c0,0,16.35,162.739,15.805,166.791c-0.545,4.052-4.905,4.052-7.085,0.675
			c-2.18-3.376-23.98-165.44-23.98-165.44L361.577,268.211z"/>
		<path style="fill:#A47070;" d="M332.54,268.211c0,0,16.35,151.745,15.805,155.523c-0.545,3.778-4.905,3.778-7.085,0.63
			c-2.18-3.148-23.98-154.264-23.98-154.264L332.54,268.211z"/>
		<path style="fill:#664353;" d="M101.623,265.181L101.623,265.181c-2.025,3.826,0.748,8.432,5.076,8.432h268.066
			c4.588,0,7.324-5.113,4.779-8.93l-0.44-0.659c-1.068-1.602-2.868-2.563-4.793-2.558l-267.626,0.659
			C104.563,262.13,102.616,263.305,101.623,265.181z"/>
		
			<ellipse transform="matrix(0.1598 -0.9872 0.9872 0.1598 -24.2005 449.2409)" style="fill:#FFFFFF;" cx="251.796" cy="238.836" rx="8.441" ry="8.441"/>
		<path style="fill:#FFFFFF;" d="M356.209,193.425c0,3.077-2.494,5.571-5.571,5.571c-3.077,0-5.571-2.494-5.571-5.571
			c0-3.077,2.494-5.571,5.571-5.571C353.714,187.854,356.209,190.348,356.209,193.425z"/>
		<path style="fill:#0E4261;" d="M334.999,197.925c-0.293-0.151-0.63-0.259-0.947-0.351c-0.168-0.049-0.303,0.14-0.22,0.287
			c0.199,0.356,0.642,0.569,1.044,0.522C335.095,198.358,335.24,198.048,334.999,197.925z"/>
		<path style="fill:#0E4261;" d="M332.86,206.073c-0.249-0.169-0.507-0.22-0.799-0.283c-0.243-0.053-0.426,0.307-0.178,0.421
			c0.292,0.134,0.543,0.255,0.866,0.27C332.982,206.491,333.029,206.188,332.86,206.073z"/>
		<path style="fill:#0E4261;" d="M330.974,215.594c-0.326-0.16-0.7-0.186-1.056-0.236c-0.176-0.025-0.283,0.186-0.123,0.293
			c0.339,0.227,0.725,0.386,1.133,0.3C331.088,215.917,331.123,215.667,330.974,215.594z"/>
		<path style="fill:#0E4261;" d="M328.364,225.816c-0.325-0.208-0.671-0.186-1.039-0.11c-0.221,0.046-0.147,0.35,0.05,0.368
			c0.301,0.029,0.577,0.131,0.875,0.164C328.489,226.265,328.538,225.927,328.364,225.816z"/>
		<path style="fill:#0E4261;" d="M326.595,232.725c-0.327-0.19-0.651-0.195-1.02-0.144c-0.227,0.031-0.14,0.346,0.05,0.368
			c0.294,0.034,0.579,0.107,0.875,0.125C326.691,233.087,326.75,232.815,326.595,232.725z"/>
		<path style="fill:#F16F6B;" d="M311.171,230.174c-0.51-1.707-1.072-3.338-1.479-5.078c-1.058-4.524-2.605-8.952-3.537-13.501
			c-0.036-0.176-0.332-0.138-0.315,0.043c0.163,1.652,0.764,3.192,1.145,4.801c0.502,2.123,0.858,4.211,1.478,6.312
			c0.506,1.713,0.774,3.487,1.292,5.195c0.493,1.627,1.073,3.111,1.246,4.817c0.029,0.284,0.39,0.337,0.491,0.066
			C311.814,231.968,311.422,231.015,311.171,230.174z"/>
		<path style="fill:#3785BA;" d="M314.5,200.012c0.497-0.876,5.25,0.5,6,0.375s1.5-3.125,1-5.25s-6.875-1.875-8.25-1
			s-2.125,22.875-0.75,24.25s2.5-1.625,1-2.375C313.5,216.012,311.875,204.637,314.5,200.012z"/>
		<path style="fill:#FFC52B;" d="M301.333,206.971c-0.116,1.505,1.083,4.833,1.5,5.25c0.417,0.417,5.333-1,5.833-1.667
			s-0.917-4.833-1.417-5.417C306.75,204.554,301.417,205.887,301.333,206.971z"/>
		<path style="fill:#FFDF65;" d="M307.167,205.709c-1.705-0.015-3.796,0.406-5.127,1.551c-0.128,0.11-0.016,0.297,0.127,0.307
			c0.621,0.042,1.372-0.514,1.948-0.693c1.02-0.317,2.104-0.336,3.121-0.651C307.517,206.136,307.467,205.711,307.167,205.709z"/>
		<path style="fill:#FFDF65;" d="M307.333,207.054c-1.51,0.183-3.391,0.512-4.626,1.451c-0.257,0.195-0.045,0.563,0.252,0.432
			c0.769-0.34,1.513-0.588,2.334-0.763c0.751-0.16,1.495-0.262,2.166-0.654C307.659,207.403,307.591,207.023,307.333,207.054z"/>
		<path style="fill:#FFDF65;" d="M307.483,208.563c-1.408-0.217-3.137,0.362-4.229,1.245c-0.206,0.167,0.06,0.497,0.279,0.362
			c0.621-0.384,1.293-0.612,2.002-0.769c0.644-0.142,1.324-0.137,1.948-0.356C307.692,208.972,307.749,208.604,307.483,208.563z"/>
		<path style="fill:#FFDF65;" d="M307.833,209.78c-1.288-0.122-2.708,0.413-3.914,0.813c-0.37,0.123-0.219,0.694,0.162,0.588
			c1.246-0.349,2.618-0.421,3.825-0.863C308.202,210.209,308.143,209.81,307.833,209.78z"/>
		<path style="fill:#FFFFFF;" d="M341.25,212.152v10.341c0,0.425,0.345,0.77,0.77,0.77h16.602c0.419,0,0.761-0.335,0.77-0.754
			l0.218-10.455c0.009-0.433-0.341-0.789-0.775-0.786l-16.819,0.114C341.591,211.385,341.25,211.729,341.25,212.152z"/>
		<path style="fill:#B5C0E0;" d="M357.5,214.922c-4.388-0.39-9.107-0.253-13.5,0.063c-0.196,0.014-0.196,0.291,0,0.305
			c4.393,0.315,9.112,0.452,13.5,0.063C357.777,215.327,357.777,214.947,357.5,214.922z"/>
		<path style="fill:#B5C0E0;" d="M357.5,219.422c-4.388-0.39-9.107-0.253-13.5,0.063c-0.196,0.014-0.196,0.291,0,0.305
			c4.393,0.315,9.112,0.452,13.5,0.063C357.777,219.827,357.777,219.447,357.5,219.422z"/>
		<path style="fill:#F59890;" d="M147.717,242.279c-0.286-0.48-0.883-0.894-1.467-0.842c-1.756,0.156-3.198,1.62-4.538,2.743
			c-1.04-1.129-2.165-2.269-3.816-2.269c-2.526,0-4.439,3.124-2.837,5.301c1.395,1.896,2.961,4.258,5.282,5.088
			c3.218,1.15,4.84-2.311,6.188-4.558C147.481,246.152,148.809,244.113,147.717,242.279z"/>
	</g>
	<g>
		<path style="fill:#AFC4E5;" d="M313.999,61.554c-4.3,2.15-0.667,80.667,0,84.667c0.667,4,67.333,6,72.667,3.333
			c5.333-2.667,3.333-81.333,2-86.667C387.332,57.554,317.999,59.554,313.999,61.554z"/>
		<path style="fill:#664353;" d="M320.999,52.887c-3,0-3,14,0,14S323.499,52.887,320.999,52.887z"/>
		<path style="fill:#664353;" d="M330.999,52.887c-3,0-3,14,0,14S333.499,52.887,330.999,52.887z"/>
		<path style="fill:#664353;" d="M340.999,52.887c-3,0-3,14,0,14S343.499,52.887,340.999,52.887z"/>
		<path style="fill:#664353;" d="M350.999,52.887c-3,0-3,14,0,14S353.499,52.887,350.999,52.887z"/>
		<path style="fill:#664353;" d="M360.999,52.887c-3,0-3,14,0,14S363.499,52.887,360.999,52.887z"/>
		<path style="fill:#664353;" d="M370.999,52.887c-3,0-3,14,0,14S373.499,52.887,370.999,52.887z"/>
		<path style="fill:#664353;" d="M380.999,52.887c-3,0-3,14,0,14S383.499,52.887,380.999,52.887z"/>
		<g>
			<g>
				<g>
					<path style="fill:#4195D1;" d="M319.705,96.63c-0.004-0.329-0.007-0.658-0.011-0.984
						C319.698,95.972,319.701,96.301,319.705,96.63z"/>
				</g>
				<g>
					<path style="fill:#4195D1;" d="M319.732,99.109c-0.006-0.519-0.012-1.035-0.017-1.548
						C319.721,98.073,319.727,98.59,319.732,99.109z"/>
				</g>
				<g>
					<path style="fill:#4195D1;" d="M319.687,94.945c-0.013-1.174-0.025-2.322-0.036-3.436
						C319.662,92.623,319.674,93.77,319.687,94.945z"/>
				</g>
				<g>
					<path style="fill:#4195D1;" d="M319.756,101.198c-0.006-0.548-0.012-1.094-0.019-1.636
						C319.744,100.105,319.75,100.65,319.756,101.198z"/>
				</g>
				<g>
					<path style="fill:#4195D1;" d="M336.576,73.795c0.719-0.015,1.451-0.027,2.193-0.039
						C338.026,73.767,337.296,73.78,336.576,73.795z"/>
				</g>
				<g>
					<path style="fill:#4195D1;" d="M319.644,90.882c-0.004-0.361-0.007-0.719-0.011-1.073
						C319.637,90.163,319.641,90.52,319.644,90.882z"/>
				</g>
				<g>
					<path style="fill:#4195D1;" d="M320.17,129.143c-0.008-0.348-0.015-0.702-0.022-1.064
						C320.155,128.441,320.163,128.796,320.17,129.143z"/>
				</g>
				<g>
					<path style="fill:#4195D1;" d="M319.78,103.287c-0.007-0.594-0.014-1.187-0.021-1.777
						C319.766,102.1,319.773,102.693,319.78,103.287z"/>
				</g>
				<g>
					<path style="fill:#4195D1;" d="M320.147,128.016c-0.008-0.371-0.015-0.749-0.023-1.135
						C320.132,127.267,320.139,127.646,320.147,128.016z"/>
				</g>
				<g>
					<path style="fill:#4195D1;" d="M338.857,73.755c1.458-0.022,2.957-0.038,4.48-0.048
						C341.814,73.717,340.316,73.733,338.857,73.755z"/>
				</g>
				<g>
					<path style="fill:#4195D1;" d="M319.806,105.435c-0.006-0.497-0.012-0.994-0.018-1.489
						C319.794,104.441,319.8,104.938,319.806,105.435z"/>
				</g>
				<g>
					<path style="fill:#4195D1;" d="M320.122,126.793c-0.007-0.377-0.014-0.76-0.022-1.149
						C320.108,126.033,320.115,126.416,320.122,126.793z"/>
				</g>
				<g>
					<path style="fill:#4195D1;" d="M346.128,73.696c0.735-0.001,1.472-0.002,2.212,0C347.599,73.694,346.862,73.695,346.128,73.696
						z"/>
				</g>
				<g>
					<path style="fill:#4195D1;" d="M381.076,75.152c0.089,0.029,0.164,0.059,0.226,0.089
						C381.24,75.211,381.165,75.181,381.076,75.152z"/>
				</g>
				<g>
					<path style="fill:#4195D1;" d="M376.086,74.488c0.377,0.029,0.736,0.059,1.079,0.09
						C376.822,74.547,376.463,74.517,376.086,74.488z"/>
				</g>
				<g>
					<path style="fill:#4195D1;" d="M343.604,73.705c0.713-0.004,1.43-0.007,2.152-0.009
						C345.034,73.698,344.317,73.701,343.604,73.705z"/>
				</g>
				<g>
					<path style="fill:#4195D1;" d="M380.578,75.02c0.162,0.035,0.303,0.07,0.423,0.107C380.881,75.091,380.74,75.055,380.578,75.02
						z"/>
				</g>
				<g>
					<path style="fill:#4195D1;" d="M381.364,75.272c0.065,0.038,0.116,0.076,0.135,0.115
						C381.479,75.348,381.429,75.31,381.364,75.272z"/>
				</g>
				<g>
					<path style="fill:#4195D1;" d="M378.326,74.691c0.581,0.063,1.091,0.128,1.523,0.197
						C379.417,74.82,378.907,74.754,378.326,74.691z"/>
				</g>
				<g>
					<path style="fill:#4195D1;" d="M377.326,74.592c0.281,0.026,0.548,0.052,0.804,0.079
						C377.875,74.644,377.607,74.618,377.326,74.592z"/>
				</g>
				<g>
					<path style="fill:#4195D1;" d="M320.194,130.244c-0.007-0.326-0.015-0.659-0.022-1
						C320.18,129.585,320.187,129.919,320.194,130.244z"/>
				</g>
				<g>
					<path style="fill:#4195D1;" d="M374.904,74.402c0.38,0.026,0.748,0.052,1.101,0.079
						C375.653,74.454,375.284,74.428,374.904,74.402z"/>
				</g>
				<g>
					<path style="fill:#4195D1;" d="M367.112,74.02c1.137,0.04,2.232,0.084,3.275,0.132C369.344,74.104,368.249,74.06,367.112,74.02
						z"/>
				</g>
				<g>
					<path style="fill:#4195D1;" d="M372.008,74.23c0.957,0.05,1.858,0.103,2.698,0.158C373.866,74.333,372.964,74.28,372.008,74.23
						z"/>
				</g>
				<g>
					<path style="fill:#4195D1;" d="M370.454,74.155c0.492,0.022,0.973,0.046,1.441,0.07
						C371.426,74.201,370.946,74.177,370.454,74.155z"/>
				</g>
				<g>
					<path style="fill:#4195D1;" d="M330.322,73.977c1.905-0.076,3.989-0.136,6.191-0.181c-9.88,0.201-17.367,0.709-17.014,1.591
						c0,0,0.049,5.888,0.131,14.051c3.768-0.041,7.536-0.082,11.304-0.124C330.73,84.202,330.526,79.09,330.322,73.977z"/>
				</g>
				<g>
					<path style="fill:#4195D1;" d="M349.648,106.432c0.126,6.175,0.184,12.351,0.176,18.527c4.737-0.147,9.474-0.323,14.209-0.516
						c-0.2-6.164-0.349-12.328-0.454-18.494C358.938,106.185,354.294,106.353,349.648,106.432z"/>
				</g>
				<g>
					<path style="fill:#4195D1;" d="M320.341,135.436c-0.005-0.132-0.01-0.27-0.015-0.412
						C320.331,135.166,320.336,135.304,320.341,135.436z"/>
				</g>
				<g>
					<path style="fill:#4195D1;" d="M320.415,137.014c-0.005-0.082-0.01-0.164-0.015-0.256
						C320.405,136.85,320.41,136.933,320.415,137.014z"/>
				</g>
				<g>
					<path style="fill:#4195D1;" d="M331.586,105.663c-3.974-0.192-7.949-0.269-11.777,0.034c0.086,7.045,0.185,14.15,0.291,19.894
						c4.092-0.045,8.183-0.12,12.274-0.199C332.111,118.815,331.849,112.239,331.586,105.663z"/>
				</g>
				<g>
					<path style="fill:#4195D1;" d="M363.408,88.96c-0.015-5.018-0.004-10.036,0.043-15.054c1.224,0.033,2.415,0.07,3.564,0.111
						c-5.593-0.197-12.193-0.309-18.672-0.321c0.306,5.138,0.559,10.278,0.771,15.421C353.878,89.064,358.643,89.012,363.408,88.96z
						"/>
				</g>
				<g>
					<path style="fill:#4195D1;" d="M320.317,134.772c-0.006-0.168-0.011-0.344-0.017-0.523
						C320.306,134.428,320.312,134.604,320.317,134.772z"/>
				</g>
				<g>
					<path style="fill:#4195D1;" d="M320.366,136.047c-0.005-0.114-0.01-0.233-0.015-0.357
						C320.356,135.814,320.361,135.932,320.366,136.047z"/>
				</g>
				<g>
					<path style="fill:#4195D1;" d="M320.391,136.578c-0.005-0.101-0.01-0.206-0.015-0.318
						C320.381,136.372,320.386,136.477,320.391,136.578z"/>
				</g>
				<g>
					<path style="fill:#4195D1;" d="M380.008,74.914c0.167,0.028,0.321,0.056,0.462,0.085
						C380.33,74.97,380.175,74.942,380.008,74.914z"/>
				</g>
				<g>
					<path style="fill:#4195D1;" d="M320.44,137.383c-0.005-0.065-0.01-0.131-0.015-0.206
						C320.43,137.253,320.435,137.318,320.44,137.383z"/>
				</g>
				<g>
					<path style="fill:#4195D1;" d="M320.269,133.22c-0.007-0.263-0.015-0.536-0.022-0.818
						C320.255,132.684,320.262,132.957,320.269,133.22z"/>
				</g>
				<g>
					<path style="fill:#4195D1;" d="M320.467,137.669c-0.006-0.051-0.011-0.103-0.017-0.168
						C320.455,137.566,320.461,137.618,320.467,137.669z"/>
				</g>
				<g>
					<path style="fill:#4195D1;" d="M320.245,132.335c-0.016-0.625-0.033-1.294-0.049-2.001
						C320.213,131.041,320.229,131.71,320.245,132.335z"/>
				</g>
				<g>
					<path style="fill:#4195D1;" d="M320.499,137.887c-0.008-0.033-0.017-0.083-0.025-0.147
						C320.482,137.804,320.491,137.854,320.499,137.887z"/>
				</g>
				<g>
					<path style="fill:#4195D1;" d="M320.294,134.034c-0.006-0.205-0.013-0.419-0.019-0.637
						C320.281,133.615,320.287,133.829,320.294,134.034z"/>
				</g>
				<path style="fill:#4195D1;" d="M320.425,137.177c-0.003-0.05-0.007-0.107-0.01-0.162
					C320.419,137.07,320.422,137.126,320.425,137.177z"/>
				<path style="fill:#4195D1;" d="M320.4,136.758c-0.003-0.057-0.006-0.119-0.009-0.18
					C320.394,136.639,320.397,136.701,320.4,136.758z"/>
				<path style="fill:#4195D1;" d="M320.45,137.501c-0.003-0.035-0.006-0.078-0.009-0.118
					C320.443,137.422,320.447,137.466,320.45,137.501z"/>
				<path style="fill:#4195D1;" d="M320.474,137.74c-0.003-0.02-0.005-0.049-0.008-0.071
					C320.469,137.691,320.472,137.72,320.474,137.74z"/>
				<path style="fill:#4195D1;" d="M320.197,130.333c-0.001-0.029-0.001-0.06-0.002-0.089
					C320.195,130.273,320.196,130.304,320.197,130.333z"/>
				<path style="fill:#4195D1;" d="M320.148,128.079c0-0.021-0.001-0.042-0.001-0.062
					C320.147,128.037,320.147,128.058,320.148,128.079z"/>
				<path style="fill:#4195D1;" d="M320.247,132.402c-0.001-0.023-0.001-0.044-0.002-0.067
					C320.246,132.358,320.246,132.379,320.247,132.402z"/>
				<path style="fill:#4195D1;" d="M320.172,129.244c-0.001-0.033-0.002-0.068-0.002-0.101
					C320.171,129.176,320.172,129.211,320.172,129.244z"/>
				<path style="fill:#4195D1;" d="M320.124,126.881c0-0.029-0.001-0.059-0.002-0.089
					C320.123,126.822,320.124,126.852,320.124,126.881z"/>
				<path style="fill:#4195D1;" d="M320.351,135.69c-0.003-0.083-0.007-0.167-0.01-0.254
					C320.345,135.523,320.348,135.607,320.351,135.69z"/>
				<path style="fill:#4195D1;" d="M320.376,136.26c-0.003-0.069-0.006-0.141-0.009-0.214
					C320.369,136.12,320.372,136.191,320.376,136.26z"/>
				<path style="fill:#4195D1;" d="M320.326,135.025c-0.003-0.083-0.006-0.166-0.009-0.253
					C320.32,134.859,320.323,134.941,320.326,135.025z"/>
				<path style="fill:#4195D1;" d="M320.3,134.249c-0.002-0.072-0.005-0.141-0.007-0.215
					C320.296,134.107,320.298,134.177,320.3,134.249z"/>
				<path style="fill:#4195D1;" d="M320.275,133.397c-0.002-0.06-0.004-0.117-0.005-0.177
					C320.271,133.281,320.273,133.337,320.275,133.397z"/>
				<path style="fill:#4195D1;" d="M320.1,125.59c0,0.018,0.001,0.035,0.001,0.053C320.1,125.626,320.1,125.608,320.1,125.59
					L320.1,125.59z"/>
				<path style="fill:#4195D1;" d="M381.919,125.155c-0.006,0.118-0.012,0.234-0.018,0.351
					C381.907,125.389,381.913,125.272,381.919,125.155z"/>
				<path style="fill:#4195D1;" d="M380.598,137.938c-0.017,0.075-0.035,0.147-0.052,0.219
					C380.564,138.085,380.581,138.012,380.598,137.938z"/>
				<path style="fill:#4195D1;" d="M380.184,139.366c-0.009,0.024-0.019,0.042-0.028,0.065
					C380.166,139.408,380.175,139.39,380.184,139.366z"/>
				<path style="fill:#4195D1;" d="M380.416,138.652c-0.016,0.056-0.031,0.115-0.047,0.168
					C380.384,138.766,380.4,138.708,380.416,138.652z"/>
				<path style="fill:#4195D1;" d="M379.99,139.798c-0.021,0.04-0.042,0.075-0.063,0.112
					C379.948,139.873,379.97,139.838,379.99,139.798z"/>
				<path style="fill:#4195D1;" d="M381.512,131.227c-0.01,0.11-0.019,0.221-0.029,0.329
					C381.493,131.448,381.503,131.337,381.512,131.227z"/>
				<path style="fill:#4195D1;" d="M379.778,140.131c-0.021,0.027-0.042,0.056-0.063,0.079
					C379.737,140.187,379.757,140.158,379.778,140.131z"/>
				<path style="fill:#4195D1;" d="M380.947,136.09c-0.01,0.066-0.021,0.137-0.031,0.202
					C380.927,136.227,380.937,136.157,380.947,136.09z"/>
				<path style="fill:#4195D1;" d="M381.377,132.677c-0.004,0.036-0.007,0.074-0.011,0.109
					C381.37,132.751,381.373,132.713,381.377,132.677z"/>
				<path style="fill:#4195D1;" d="M381.239,133.945c-0.01,0.087-0.021,0.17-0.031,0.256
					C381.218,134.115,381.229,134.032,381.239,133.945z"/>
				<path style="fill:#4195D1;" d="M380.762,137.163c-0.011,0.056-0.022,0.107-0.033,0.162
					C380.74,137.27,380.751,137.219,380.762,137.163z"/>
				<path style="fill:#4195D1;" d="M381.622,129.886c-0.008,0.106-0.017,0.21-0.025,0.315
					C381.606,130.096,381.614,129.993,381.622,129.886z"/>
				<path style="fill:#4195D1;" d="M381.834,126.718c-0.006,0.109-0.013,0.218-0.019,0.326
					C381.821,126.936,381.828,126.826,381.834,126.718z"/>
				<path style="fill:#4195D1;" d="M381.104,135.019c-0.014,0.102-0.027,0.202-0.041,0.301
					C381.076,135.221,381.09,135.12,381.104,135.019z"/>
				<path style="fill:#FFFFFF;" d="M332.374,125.391c-4.091,0.079-8.182,0.154-12.274,0.199c0,0.018,0.001,0.036,0.001,0.053
					c0.007,0.39,0.014,0.773,0.022,1.149c0.001,0.029,0.001,0.059,0.002,0.089c0.008,0.386,0.015,0.764,0.023,1.135
					c0,0.021,0.001,0.042,0.001,0.062c0.007,0.363,0.015,0.717,0.022,1.064c0.001,0.033,0.001,0.068,0.002,0.101
					c0.007,0.342,0.015,0.674,0.022,1c0.001,0.029,0.001,0.06,0.002,0.089c0.016,0.708,0.032,1.376,0.049,2.001
					c0.001,0.023,0.001,0.044,0.002,0.067c0.007,0.281,0.015,0.555,0.022,0.818c0.002,0.061,0.003,0.117,0.005,0.177
					c0.006,0.218,0.013,0.432,0.019,0.637c0.002,0.074,0.005,0.143,0.007,0.215c0.006,0.18,0.011,0.355,0.017,0.523
					c0.003,0.087,0.006,0.169,0.009,0.253c0.005,0.142,0.01,0.28,0.015,0.412c0.003,0.087,0.007,0.171,0.01,0.254
					c0.005,0.124,0.01,0.242,0.015,0.357c0.003,0.073,0.006,0.145,0.009,0.214c0.005,0.112,0.01,0.217,0.015,0.318
					c0.003,0.061,0.006,0.123,0.009,0.18c0.005,0.092,0.01,0.174,0.015,0.256c0.003,0.055,0.007,0.112,0.01,0.162
					c0.005,0.076,0.01,0.142,0.015,0.206c0.003,0.039,0.006,0.083,0.009,0.118c0.006,0.065,0.011,0.117,0.017,0.168
					c0.003,0.023,0.005,0.051,0.008,0.071c0.008,0.064,0.016,0.114,0.025,0.147c0.191,0.763,8.236,1.598,18.336,2.229
					c-2.066-0.129-4.046-0.267-5.89-0.411C332.754,134.934,332.564,130.163,332.374,125.391z"/>
				<g>
					<path style="fill:#4195D1;" d="M364.691,141.102c1.904,0.021,3.7,0.026,5.344,0.01
						C368.391,141.128,366.594,141.124,364.691,141.102z"/>
				</g>
				<g>
					<path style="fill:#4195D1;" d="M378.269,140.696c-0.135,0.021-0.28,0.041-0.431,0.06
						C377.989,140.737,378.134,140.717,378.269,140.696z"/>
				</g>
				<g>
					<path style="fill:#4195D1;" d="M378.737,140.613c-0.096,0.02-0.198,0.038-0.306,0.056
						C378.539,140.652,378.641,140.633,378.737,140.613z"/>
				</g>
				<g>
					<path style="fill:#4195D1;" d="M376.983,140.848c-0.198,0.018-0.405,0.035-0.621,0.051
						C376.579,140.883,376.785,140.866,376.983,140.848z"/>
				</g>
				<g>
					<path style="fill:#4195D1;" d="M377.723,140.771c-0.2,0.024-0.414,0.047-0.641,0.068
						C377.309,140.818,377.522,140.795,377.723,140.771z"/>
				</g>
				<g>
					<path style="fill:#4195D1;" d="M379.499,140.387c-0.07,0.035-0.16,0.069-0.262,0.101
						C379.339,140.456,379.429,140.422,379.499,140.387z"/>
				</g>
				<g>
					<path style="fill:#4195D1;" d="M379.133,140.518c-0.077,0.022-0.158,0.043-0.249,0.064
						C378.975,140.561,379.056,140.54,379.133,140.518z"/>
				</g>
				<g>
					<path style="fill:#4195D1;" d="M374.463,141.008c-0.631,0.027-1.308,0.049-2.028,0.067
						C373.155,141.057,373.833,141.035,374.463,141.008z"/>
				</g>
				<g>
					<path style="fill:#4195D1;" d="M372.372,141.076c-0.339,0.008-0.687,0.015-1.044,0.021
						C371.685,141.091,372.033,141.084,372.372,141.076z"/>
				</g>
				<g>
					<path style="fill:#4195D1;" d="M345.195,140.472c-2.17-0.109-4.303-0.228-6.352-0.356
						C340.892,140.244,343.024,140.364,345.195,140.472z"/>
				</g>
				<g>
					<path style="fill:#4195D1;" d="M376.164,140.913c-0.197,0.014-0.399,0.027-0.61,0.039
						C375.764,140.94,375.967,140.927,376.164,140.913z"/>
				</g>
				<path style="fill:#FFFFFF;" d="M349.824,124.959c-0.007,5.24-0.058,10.481-0.162,15.72c-1.455-0.062-2.908-0.129-4.345-0.201
					c6.583,0.329,13.487,0.558,19.372,0.624c-0.257-5.552-0.476-11.105-0.656-16.66
					C359.297,124.636,354.561,124.812,349.824,124.959z"/>
				<g>
					<path style="fill:#4195D1;" d="M375.337,140.965c-0.233,0.013-0.474,0.025-0.722,0.036
						C374.863,140.989,375.104,140.977,375.337,140.965z"/>
				</g>
				<g>
					<path style="fill:#4195D1;" d="M371.195,141.098c-0.354,0.006-0.717,0.01-1.087,0.014
						C370.479,141.109,370.841,141.104,371.195,141.098z"/>
				</g>
				<path style="fill:#4195D1;" d="M382.337,94.287c0,0.016,0,0.033,0.001,0.049C382.337,94.32,382.337,94.303,382.337,94.287z"/>
				<path style="fill:#4195D1;" d="M319.63,89.438c0.001,0.121,0.003,0.248,0.004,0.37C319.632,89.686,319.631,89.561,319.63,89.438
					L319.63,89.438z"/>
				<path style="fill:#4195D1;" d="M319.788,103.946c-0.003-0.22-0.005-0.439-0.008-0.658
					C319.783,103.507,319.786,103.726,319.788,103.946z"/>
				<path style="fill:#4195D1;" d="M319.651,91.508c-0.002-0.21-0.004-0.42-0.006-0.627
					C319.646,91.09,319.649,91.297,319.651,91.508z"/>
				<path style="fill:#4195D1;" d="M382.377,98.292c0,0.001,0,0.003,0,0.004C382.377,98.295,382.377,98.294,382.377,98.292z"/>
				<path style="fill:#4195D1;" d="M382.275,90.52c0,0.012,0,0.024,0.001,0.035C382.276,90.543,382.276,90.531,382.275,90.52z"/>
				<path style="fill:#4195D1;" d="M319.809,105.697L319.809,105.697c-0.001-0.087-0.002-0.175-0.003-0.262
					C319.807,105.522,319.808,105.609,319.809,105.697z"/>
				<path style="fill:#4195D1;" d="M319.694,95.646c-0.003-0.235-0.005-0.469-0.008-0.702
					C319.689,95.177,319.692,95.412,319.694,95.646z"/>
				<path style="fill:#4195D1;" d="M319.76,101.51c-0.001-0.104-0.002-0.208-0.004-0.312
					C319.757,101.302,319.758,101.406,319.76,101.51z"/>
				<path style="fill:#4195D1;" d="M319.715,97.561c-0.003-0.312-0.007-0.621-0.01-0.931
					C319.708,96.94,319.712,97.249,319.715,97.561z"/>
				<path style="fill:#4195D1;" d="M319.737,99.562c-0.002-0.151-0.003-0.303-0.005-0.453
					C319.734,99.26,319.736,99.411,319.737,99.562z"/>
				<path style="fill:#FFFFFF;" d="M363.579,105.949c-0.097-5.662-0.154-11.325-0.171-16.989c-4.765,0.052-9.53,0.104-14.294,0.156
					c0.237,5.77,0.417,11.542,0.535,17.316C354.294,106.353,358.938,106.185,363.579,105.949z"/>
				<path style="fill:#FFFFFF;" d="M331.586,105.663c-0.217-5.449-0.435-10.899-0.652-16.348c-3.768,0.041-7.536,0.082-11.304,0.124
					c0.001,0.122,0.003,0.247,0.004,0.37c0.004,0.353,0.007,0.711,0.011,1.073c0.002,0.207,0.004,0.417,0.006,0.627
					c0.012,1.114,0.023,2.262,0.036,3.436c0.003,0.233,0.005,0.467,0.008,0.702c0.003,0.326,0.007,0.655,0.011,0.984
					c0.003,0.309,0.007,0.619,0.01,0.931c0.006,0.513,0.011,1.028,0.017,1.548c0.002,0.151,0.003,0.302,0.005,0.453
					c0.006,0.543,0.012,1.088,0.019,1.636c0.001,0.104,0.002,0.207,0.004,0.312c0.007,0.59,0.014,1.183,0.021,1.777
					c0.003,0.219,0.005,0.439,0.008,0.658c0.006,0.496,0.012,0.992,0.018,1.489c0.001,0.087,0.002,0.175,0.003,0.262
					C323.638,105.394,327.612,105.471,331.586,105.663z"/>
				<path style="fill:#4195D1;" d="M370.108,141.112c-0.025,0-0.049,0.001-0.073,0.001
					C370.06,141.113,370.084,141.112,370.108,141.112z"/>
				<path style="fill:#4195D1;" d="M372.435,141.074c-0.021,0.001-0.042,0.001-0.063,0.001
					C372.393,141.075,372.414,141.075,372.435,141.074z"/>
				<polygon style="fill:#4195D1;" points="364.689,141.102 364.691,141.102 364.689,141.102 				"/>
				<path style="fill:#4195D1;" d="M374.615,141.001c-0.051,0.002-0.1,0.005-0.152,0.007
					C374.515,141.005,374.564,141.003,374.615,141.001z"/>
				<path style="fill:#4195D1;" d="M374.706,74.389c0.067,0.005,0.133,0.009,0.199,0.013
					C374.838,74.398,374.773,74.393,374.706,74.389z"/>
				<path style="fill:#4195D1;" d="M371.328,141.096c-0.044,0.001-0.089,0.001-0.133,0.002
					C371.24,141.098,371.284,141.097,371.328,141.096z"/>
				<path style="fill:#4195D1;" d="M379.849,74.888c0.055,0.009,0.107,0.017,0.159,0.026
					C379.956,74.905,379.904,74.896,379.849,74.888z"/>
				<path style="fill:#4195D1;" d="M370.387,74.152c0.022,0.001,0.044,0.002,0.067,0.003
					C370.431,74.154,370.409,74.153,370.387,74.152z"/>
				<path style="fill:#4195D1;" d="M371.895,74.225c0.038,0.002,0.076,0.004,0.113,0.006
					C371.97,74.229,371.932,74.227,371.895,74.225z"/>
				<path style="fill:#4195D1;" d="M378.13,74.671c0.065,0.007,0.132,0.014,0.195,0.021
					C378.262,74.685,378.196,74.678,378.13,74.671z"/>
				<path style="fill:#4195D1;" d="M378.884,140.582c-0.047,0.011-0.097,0.021-0.148,0.031
					C378.787,140.603,378.837,140.592,378.884,140.582z"/>
				<path style="fill:#4195D1;" d="M367.014,74.017c0.033,0.001,0.065,0.002,0.097,0.003
					C367.079,74.019,367.047,74.018,367.014,74.017z"/>
				<path style="fill:#4195D1;" d="M381.002,75.127c0.027,0.008,0.048,0.017,0.074,0.025
					C381.05,75.144,381.029,75.135,381.002,75.127z"/>
				<path style="fill:#4195D1;" d="M379.237,140.488c-0.032,0.01-0.07,0.02-0.105,0.03
					C379.167,140.508,379.206,140.499,379.237,140.488z"/>
				<path style="fill:#4195D1;" d="M380.47,74.999c0.035,0.007,0.075,0.014,0.108,0.021
					C380.545,75.013,380.505,75.006,380.47,74.999z"/>
				<path style="fill:#4195D1;" d="M378.43,140.67c-0.053,0.009-0.105,0.018-0.161,0.027
					C378.325,140.688,378.377,140.679,378.43,140.67z"/>
				<path style="fill:#4195D1;" d="M375.554,140.952c-0.072,0.004-0.144,0.008-0.217,0.012
					C375.41,140.961,375.482,140.956,375.554,140.952z"/>
				<path style="fill:#4195D1;" d="M376.362,140.899c-0.065,0.005-0.132,0.009-0.198,0.014
					C376.23,140.908,376.297,140.904,376.362,140.899z"/>
				<path style="fill:#4195D1;" d="M377.165,74.577c0.055,0.005,0.107,0.01,0.161,0.015
					C377.272,74.587,377.22,74.582,377.165,74.577z"/>
				<path style="fill:#4195D1;" d="M376.005,74.481c0.027,0.002,0.055,0.004,0.081,0.006
					C376.06,74.485,376.032,74.483,376.005,74.481z"/>
				<path style="fill:#4195D1;" d="M377.838,140.756c-0.039,0.005-0.074,0.01-0.115,0.015
					C377.763,140.766,377.798,140.761,377.838,140.756z"/>
				<path style="fill:#4195D1;" d="M381.302,75.241c0.022,0.01,0.044,0.021,0.062,0.032
					C381.345,75.261,381.323,75.251,381.302,75.241z"/>
				<path style="fill:#4195D1;" d="M377.082,140.839c-0.031,0.003-0.066,0.006-0.098,0.008
					C377.015,140.845,377.05,140.842,377.082,140.839z"/>
				<g>
					<path style="fill:#4195D1;" d="M380.916,136.292c-0.05,0.305-0.101,0.596-0.154,0.871
						C380.815,136.888,380.866,136.597,380.916,136.292z"/>
				</g>
				<g>
					<path style="fill:#4195D1;" d="M380.546,138.157c-0.043,0.175-0.086,0.339-0.13,0.495
						C380.46,138.496,380.503,138.331,380.546,138.157z"/>
				</g>
				<g>
					<path style="fill:#4195D1;" d="M381.597,130.201c-0.028,0.349-0.056,0.691-0.085,1.026
						C381.542,130.892,381.57,130.55,381.597,130.201z"/>
				</g>
				<g>
					<path style="fill:#4195D1;" d="M381.901,125.506c-0.022,0.41-0.044,0.814-0.067,1.212
						C381.857,126.319,381.88,125.915,381.901,125.506z"/>
				</g>
				<g>
					<path style="fill:#4195D1;" d="M380.157,139.431c-0.054,0.136-0.11,0.258-0.166,0.367
						C380.047,139.689,380.102,139.567,380.157,139.431z"/>
				</g>
				<g>
					<path style="fill:#4195D1;" d="M380.368,138.82c-0.06,0.198-0.121,0.383-0.184,0.546
						C380.247,139.202,380.308,139.018,380.368,138.82z"/>
				</g>
				<g>
					<path style="fill:#4195D1;" d="M381.483,131.556c-0.034,0.383-0.07,0.758-0.107,1.121
						C381.414,132.314,381.449,131.939,381.483,131.556z"/>
				</g>
				<g>
					<path style="fill:#4195D1;" d="M381.366,132.787c-0.041,0.399-0.083,0.784-0.127,1.158
						C381.283,133.571,381.325,133.186,381.366,132.787z"/>
				</g>
				<g>
					<path style="fill:#4195D1;" d="M382.276,90.555c0.023,1.203,0.044,2.45,0.06,3.732
						C382.32,93.005,382.299,91.758,382.276,90.555z"/>
				</g>
				<g>
					<path style="fill:#4195D1;" d="M379.715,140.21c-0.071,0.077-0.142,0.14-0.216,0.177
						C379.573,140.35,379.645,140.287,379.715,140.21z"/>
				</g>
				<g>
					<path style="fill:#4195D1;" d="M381.062,135.32c-0.037,0.266-0.076,0.522-0.115,0.77
						C380.987,135.842,381.025,135.586,381.062,135.32z"/>
				</g>
				<g>
					<path style="fill:#4195D1;" d="M381.208,134.201c-0.034,0.28-0.069,0.553-0.104,0.818
						C381.139,134.754,381.174,134.481,381.208,134.201z"/>
				</g>
				<g>
					<path style="fill:#4195D1;" d="M381.815,127.043c-0.059,0.986-0.123,1.936-0.193,2.843
						C381.692,128.979,381.756,128.03,381.815,127.043z"/>
				</g>
				<g>
					<path style="fill:#4195D1;" d="M380.729,137.324c-0.043,0.214-0.086,0.419-0.131,0.613
						C380.643,137.743,380.686,137.539,380.729,137.324z"/>
				</g>
				<g>
					<path style="fill:#4195D1;" d="M379.927,139.91c-0.049,0.084-0.098,0.158-0.149,0.222
						C379.829,140.067,379.879,139.994,379.927,139.91z"/>
				</g>
				<g>
					<path style="fill:#4195D1;" d="M382.337,94.336c0.017,1.288,0.03,2.61,0.04,3.956
						C382.367,96.946,382.354,95.624,382.337,94.336z"/>
				</g>
				<path style="fill:#FFFFFF;" d="M382.391,104.521c-6.256,0.652-12.531,1.107-18.812,1.427c0.105,6.166,0.254,12.331,0.454,18.494
					c5.989-0.244,11.976-0.515,17.961-0.833c-0.024,0.523-0.049,1.037-0.075,1.545c0.41-7.999,0.52-17.952,0.457-26.858
					C382.391,100.328,382.396,102.415,382.391,104.521z"/>
				<path style="fill:#FFFFFF;" d="M363.408,88.96c6.277-0.069,12.554-0.137,18.831-0.206c0.013,0.576,0.025,1.166,0.037,1.765
					c-0.162-8.331-0.469-14.518-0.776-15.132c-0.02-0.039-0.07-0.077-0.135-0.115c-0.018-0.011-0.04-0.021-0.062-0.032
					c-0.062-0.03-0.137-0.059-0.226-0.089c-0.025-0.008-0.046-0.017-0.074-0.025c-0.121-0.036-0.262-0.072-0.423-0.107
					c-0.034-0.007-0.073-0.014-0.108-0.021c-0.141-0.029-0.295-0.057-0.462-0.085c-0.052-0.009-0.104-0.018-0.159-0.026
					c-0.433-0.068-0.942-0.134-1.523-0.197c-0.064-0.007-0.13-0.014-0.195-0.021c-0.256-0.027-0.523-0.053-0.804-0.079
					c-0.054-0.005-0.106-0.01-0.161-0.015c-0.343-0.031-0.702-0.061-1.079-0.09c-0.026-0.002-0.055-0.004-0.081-0.006
					c-0.353-0.027-0.721-0.053-1.101-0.079c-0.066-0.004-0.132-0.009-0.199-0.013c-0.84-0.056-1.741-0.109-2.698-0.158
					c-0.038-0.002-0.076-0.004-0.113-0.006c-0.468-0.024-0.948-0.047-1.441-0.07c-0.022-0.001-0.044-0.002-0.067-0.003
					c-1.043-0.047-2.138-0.091-3.275-0.132c-0.032-0.001-0.065-0.002-0.097-0.003c-1.149-0.041-2.34-0.077-3.564-0.111
					C363.403,78.924,363.392,83.942,363.408,88.96z"/>
				<g>
					<path style="fill:#F9A52E;" d="M379.927,139.91c0.021-0.036,0.042-0.072,0.063-0.112c0.057-0.109,0.112-0.231,0.166-0.367
						c0.009-0.023,0.019-0.041,0.028-0.065c0.063-0.164,0.124-0.348,0.184-0.546c0.016-0.053,0.032-0.112,0.047-0.168
						c0.044-0.156,0.088-0.32,0.13-0.495c0.017-0.072,0.035-0.144,0.052-0.219c0.045-0.194,0.088-0.399,0.131-0.613
						c0.011-0.055,0.022-0.106,0.033-0.162c0.053-0.275,0.104-0.566,0.154-0.871c0.011-0.065,0.021-0.135,0.031-0.202
						c0.039-0.248,0.078-0.504,0.115-0.77c0.014-0.099,0.028-0.2,0.041-0.301c0.036-0.265,0.07-0.538,0.104-0.818
						c0.01-0.086,0.021-0.169,0.031-0.256c0.044-0.374,0.086-0.758,0.127-1.158c0.004-0.036,0.007-0.074,0.011-0.109
						c0.037-0.363,0.072-0.738,0.107-1.121c0.01-0.109,0.019-0.219,0.029-0.329c0.029-0.335,0.057-0.677,0.085-1.026
						c0.008-0.105,0.017-0.209,0.025-0.315c0.069-0.907,0.134-1.857,0.193-2.843c0.006-0.108,0.013-0.217,0.019-0.326
						c0.023-0.398,0.045-0.803,0.067-1.212c0.006-0.117,0.012-0.233,0.018-0.351c0.026-0.508,0.051-1.022,0.075-1.545
						c-5.985,0.318-11.973,0.588-17.961,0.833c0.18,5.555,0.399,11.108,0.656,16.66c0.001,0,0.001,0,0.002,0
						c1.904,0.021,3.7,0.026,5.344,0.01c0.025,0,0.049-0.001,0.073-0.001c0.371-0.003,0.733-0.008,1.087-0.014
						c0.044-0.001,0.089-0.001,0.133-0.002c0.357-0.006,0.705-0.013,1.044-0.021c0.021-0.001,0.042-0.001,0.063-0.001
						c0.72-0.017,1.397-0.039,2.028-0.067c0.052-0.002,0.101-0.005,0.152-0.007c0.249-0.011,0.489-0.023,0.722-0.036
						c0.073-0.004,0.145-0.008,0.217-0.012c0.21-0.012,0.413-0.025,0.61-0.039c0.066-0.005,0.134-0.009,0.198-0.014
						c0.217-0.016,0.423-0.033,0.621-0.051c0.032-0.003,0.067-0.006,0.098-0.008c0.227-0.021,0.441-0.044,0.641-0.068
						c0.04-0.005,0.076-0.01,0.115-0.015c0.152-0.019,0.297-0.039,0.431-0.06c0.056-0.009,0.108-0.018,0.161-0.027
						c0.108-0.018,0.211-0.037,0.306-0.056c0.051-0.01,0.101-0.021,0.148-0.031c0.091-0.021,0.172-0.042,0.249-0.064
						c0.035-0.01,0.073-0.019,0.105-0.03c0.101-0.032,0.191-0.066,0.262-0.101c0.074-0.037,0.146-0.1,0.216-0.177
						c0.021-0.023,0.042-0.052,0.063-0.079C379.829,140.067,379.879,139.994,379.927,139.91z"/>
				</g>
				<g>
					<path style="fill:#F9A52E;" d="M363.408,88.96c0.017,5.663,0.074,11.326,0.171,16.989c6.282-0.32,12.557-0.776,18.812-1.427
						c0.005-2.106,0-4.193-0.014-6.224c0-0.001,0-0.003,0-0.004c-0.009-1.346-0.023-2.668-0.04-3.956c0-0.016,0-0.033-0.001-0.049
						c-0.017-1.282-0.037-2.529-0.06-3.732c0-0.012-0.001-0.024-0.001-0.035c-0.012-0.6-0.024-1.189-0.037-1.765
						C375.961,88.823,369.684,88.891,363.408,88.96z"/>
				</g>
				<polygon style="fill:#4195D1;" points="348.343,73.696 348.339,73.696 348.343,73.696 				"/>
				<path style="fill:#4195D1;" d="M338.842,140.116c-0.003,0-0.005,0-0.007,0C338.837,140.116,338.84,140.116,338.842,140.116z"/>
				<path style="fill:#4195D1;" d="M345.756,73.697c0.124,0,0.248-0.001,0.372-0.001C346.003,73.696,345.879,73.696,345.756,73.697z
					"/>
				<path style="fill:#4195D1;" d="M336.513,73.796c0.021,0,0.042-0.001,0.063-0.001C336.555,73.795,336.534,73.796,336.513,73.796z
					"/>
				<path style="fill:#4195D1;" d="M345.317,140.478c-0.04-0.002-0.081-0.004-0.122-0.006
					C345.235,140.474,345.276,140.476,345.317,140.478z"/>
				<path style="fill:#4195D1;" d="M343.337,73.707c0.089-0.001,0.177-0.001,0.266-0.002
					C343.515,73.706,343.426,73.707,343.337,73.707z"/>
				<path style="fill:#4195D1;" d="M338.769,73.756c0.029,0,0.059-0.001,0.088-0.001C338.828,73.755,338.798,73.756,338.769,73.756z
					"/>
				<path style="fill:#FFFFFF;" d="M330.934,89.315c6.06-0.066,12.12-0.132,18.18-0.199c-0.211-5.142-0.464-10.283-0.771-15.421
					c-0.001,0-0.002,0-0.003,0c-0.74-0.001-1.477-0.001-2.212,0c-0.124,0-0.248,0-0.372,0.001c-0.721,0.002-1.439,0.004-2.152,0.009
					c-0.089,0.001-0.177,0.001-0.266,0.002c-1.523,0.01-3.022,0.026-4.48,0.048c-0.029,0-0.059,0.001-0.088,0.001
					c-0.742,0.011-1.474,0.024-2.193,0.039c-0.021,0.001-0.042,0.001-0.063,0.001c-2.203,0.045-4.287,0.105-6.191,0.181
					C330.526,79.09,330.73,84.202,330.934,89.315z"/>
				<path style="fill:#FFFFFF;" d="M349.648,106.432c-0.09,0.001-0.18,0.006-0.271,0.007c-5.573,0.092-11.681-0.48-17.791-0.776
					c0.263,6.576,0.525,13.152,0.787,19.728c5.818-0.112,11.634-0.251,17.45-0.432C349.832,118.783,349.775,112.607,349.648,106.432
					z"/>
				<g>
					<path style="fill:#F9A52E;" d="M349.824,124.959c-5.816,0.181-11.633,0.32-17.45,0.432c0.19,4.771,0.381,9.543,0.571,14.314
						c1.845,0.144,3.824,0.281,5.89,0.411c0.002,0,0.005,0,0.007,0c2.049,0.128,4.182,0.247,6.352,0.356
						c0.041,0.002,0.081,0.004,0.122,0.006c1.438,0.072,2.891,0.139,4.345,0.201C349.766,135.44,349.817,130.199,349.824,124.959z"
						/>
				</g>
				<g>
					<path style="fill:#F9A52E;" d="M349.378,106.439c0.09-0.001,0.18-0.006,0.271-0.007c-0.118-5.774-0.298-11.546-0.535-17.316
						c-6.06,0.066-12.12,0.132-18.18,0.199c0.217,5.449,0.435,10.899,0.652,16.348C337.697,105.959,343.805,106.532,349.378,106.439
						z"/>
				</g>
			</g>
		</g>
	</g>
	<g>
		<path style="fill:#77BFA0;" d="M451.82,300.544c0.953,4.595-1.429,9.413-5.034,12.418c-3.604,3.005-8.243,4.47-12.845,5.385
			c-6.9,1.373-14.487,1.553-20.517-2.072c-6.03-3.625-9.495-12.091-5.751-18.047c1.818-2.893,4.899-4.698,7.438-6.984
			c2.539-2.286,4.695-5.69,3.713-8.962c-0.563-1.875-2.044-3.3-3.263-4.831c-6.943-8.714-4.528-20.272,2.63-27.736
			c4.815-5.021,5.514-30.096,16.769-26.421c6.199,2.025,5.151,16.538,4.782,21.41c-0.148,1.959-0.36,4.1,0.742,5.726
			c0.789,1.164,2.106,1.828,3.297,2.577c8.284,5.209,11.551,17.07,7.103,25.787c-1.431,2.804-3.578,5.417-3.793,8.558
			C446.769,292.062,450.861,295.921,451.82,300.544z"/>
		<path style="fill:#77BFA0;" d="M463.195,320.757c3.683-2.848,2.856-8.57,4.625-12.876c2.012-4.896,8.04-7.725,13.092-6.145
			c3.462,4.212,3.79,10.712,0.768,15.25c-1.421,2.134-3.505,3.892-4.292,6.332c-0.549,1.703-0.395,3.539-0.358,5.327
			c0.118,5.785-1.154,11.765-4.602,16.412c-3.449,4.646-9.318,7.709-15.039,6.84c-4.749-0.721-8.922-4.116-10.92-8.484
			c-1.998-4.368-1.892-9.572-0.05-14.008c0.968-2.33,2.49-4.558,4.747-5.687C454.902,321.849,459.889,323.313,463.195,320.757z"/>
		<path style="fill:#77BFA0;" d="M387.532,347.151c-2.178-4.567,0.055-11.011-3.721-14.379c-1.856-1.656-4.641-1.931-6.507-3.577
			c-3.896-3.436-1.456-9.735-1.816-14.918c-0.28-4.035-2.446-7.697-3.224-11.666c-0.778-3.969,0.624-9.04,4.562-9.966
			c2.888-0.68,5.854,1.303,7.356,3.861c1.503,2.558,1.906,5.588,2.447,8.504c0.114,0.617,0.262,1.279,0.731,1.695
			c0.673,0.597,1.695,0.449,2.593,0.384c3.413-0.245,6.902,1.403,8.88,4.196c3.303,4.664,2.15,11.273,4.856,16.306
			c1.556,2.894,4.235,4.983,6.409,7.446c8.989,10.184-7.117,22.167-17.02,17.199C390.794,351.091,388.632,349.457,387.532,347.151z"
			/>
		<path style="fill:#5D9880;" d="M478.714,311.398c-0.5,0.288-0.949,0.615-1.406,0.966c-0.172,0.132-0.362,0.299-0.542,0.48
			c0.238-1.18,0.437-2.38,0.546-3.624c0.073-0.836-1.195-0.809-1.289,0c-0.409,3.539-1.402,6.789-2.801,9.828
			c0.022-1.656-0.058-3.295-0.417-4.957c-0.116-0.538-0.99-0.42-0.959,0.13c0.13,2.304,0.224,4.612,0.337,6.919
			c-2.662,4.943-6.389,9.322-10.449,13.446c-0.11-1.403-0.181-2.809-0.146-4.217c0.063-2.526,1.031-4.615,1.607-7.002
			c0.118-0.49-0.55-0.985-0.914-0.532c-2.805,3.488-2.588,8.7-1.78,12.986c-3.904,3.865-8.033,7.532-11.753,11.271
			c-8.304,8.346-17.274,17.824-20.921,29.294c-0.563-2.341-1.108-4.695-1.289-7.156c-0.402-5.448-0.923-10.882-1.353-16.327
			c-0.981-12.421,1.561-24.313,4.325-36.347c1.498-6.523,2.84-12.82,3.427-19.24c3.845-1.868,7.185-4.609,10.172-7.653
			c0.565-0.576-0.305-1.445-0.884-0.884c-2.827,2.738-5.818,4.777-9.138,6.631c0.233-3.49,0.232-7.026-0.112-10.663
			c-0.427-4.523-1.041-9.031-1.589-13.54c3.156-0.953,6.036-2.802,8.216-5.275c0.133-0.151,0.272-0.356,0.186-0.538
			c-0.124-0.261-0.515-0.157-0.766-0.014c-2.58,1.463-5.16,2.926-7.74,4.389c-0.905-6.476-1.025-13.062-0.357-19.567
			c-0.426,3.337-0.853,6.674-1.279,10.012c-1.379-1.871-2.758-3.742-4.137-5.613c0.585,2.725,2.003,5.266,4.017,7.193
			c0.037,2.74,0.052,5.479,0.187,8.217c-0.427,0.233-0.448,0.982,0.058,1.125c0.187,3.33,0.466,6.636,0.725,9.867
			c0.035,0.436,0.045,0.862,0.073,1.295c-3.402-2.338-7.969-4.676-8.276-9.076c-0.026-0.376-0.566-0.379-0.586,0
			c-0.124,2.345,1.105,4.235,2.589,5.94c1.722,1.978,4.084,4.004,6.395,5.323c0.33,9.02-0.873,17.443-2.772,26.12
			c-1.47-1.644-3.315-2.861-4.673-4.709c-1.592-2.166-2.771-4.645-3.681-7.164c-0.253-0.701-1.348-0.422-1.13,0.311
			c0.804,2.71,1.917,5.268,3.384,7.687c1.262,2.081,3.201,4.901,5.63,5.615c0.028,0.008,0.051,0.004,0.078,0.01
			c-0.395,1.732-0.812,3.474-1.25,5.237c-2.755,11.081-4.971,21.988-4.442,33.462c0.254,5.513,0.948,11.004,1.334,16.509
			c0.023,0.33,0.044,0.662,0.066,0.993c-1.598-2.337-3.336-4.559-4.936-6.646c-4.721-6.157-9.786-11.969-14.894-17.802
			c-1.751-2-3.445-4.041-5.08-6.123c0.493-3.939,1.491-8.323,0.946-12.263c-0.084-0.609-1.102-0.59-1.205,0
			c-0.57,3.261-1.184,7.01-1.132,10.461c-2.97-3.929-5.696-8.029-8.055-12.391c-0.79-1.46-1.466-2.959-2.08-4.479
			c2.056-1.801,2.339-5.377,1.95-7.873c-0.08-0.51-0.806-0.335-0.844,0.114c-0.112,1.311-0.15,2.607-0.429,3.899
			c-0.226,1.051-0.617,1.928-1.086,2.831c-1.706-4.445-2.954-9.043-4.808-13.412c0.516-0.501,0.753-1.279,0.79-1.985
			c0.022-0.429-0.613-0.491-0.729-0.099c-0.116,0.393-0.301,0.733-0.493,1.07c-0.314-0.694-0.643-1.381-0.997-2.06
			c-0.106-0.203-0.398-0.025-0.304,0.177c0.369,0.79,0.699,1.594,1.015,2.404c-0.057,0.108-0.116,0.216-0.167,0.33
			c-0.14,0.316,0.147,0.648,0.477,0.482c0.501,1.356,0.95,2.731,1.369,4.118c-0.917-0.339-1.823-0.779-2.586-1.379
			c-0.418-0.328-0.91,0.163-0.58,0.58c0.867,1.098,2.048,1.78,3.457,1.765c1.258,4.281,2.341,8.632,4.162,12.74
			c0.558,1.259,1.176,2.496,1.82,3.722c-0.648-0.235-1.295-0.473-1.925-0.761c-1.378-0.63-2.651-1.449-4.063-2.007
			c-0.553-0.219-1.054,0.64-0.589,1.012c1.904,1.522,4.797,3.026,7.396,3.28c2.58,4.622,5.686,9,8.931,13.111
			c0.9,1.14,1.817,2.264,2.731,3.392c-0.9,0.126-1.798,0.228-2.723,0.227c-1.316-0.002-2.597-0.367-3.906-0.357
			c-0.544,0.005-0.852,0.843-0.296,1.092c2.153,0.961,5.273,0.764,7.658-0.052c4.378,5.376,8.838,10.671,12.957,16.264
			c3.76,5.106,6.566,10.487,9.643,15.86c0.586,2.016,1.243,4.018,1.436,6.089c0.19,2.037,3.388,2.06,3.203,0
			c-0.07-0.782-0.185-1.553-0.316-2.321c2.622-7.543,5.487-14.288,10.538-20.733c4.774-6.092,10.314-11.665,15.841-17.068
			c0.649-0.634,1.3-1.27,1.952-1.908c4.544,1.08,9.885,0.372,14.201-1.091c0.701-0.238,0.412-1.212-0.301-1.092
			c-4.476,0.752-8.534,1.426-12.97,1.27c3.851-3.786,7.661-7.685,10.867-11.933c1.959,0.199,3.892-1.1,5.461-2.104
			c0.373-0.239,0.131-0.935-0.316-0.75c-0.863,0.358-1.693,0.759-2.529,1.174c-0.629,0.313-1.239,0.51-1.867,0.658
			c2.983-4.137,5.362-8.616,6.622-13.654c0.109,0.049,0.23,0.079,0.357,0.06c0.465-0.071,1.059-0.543,1.398-0.868
			c0.419-0.401,0.82-0.797,1.195-1.24C479.803,311.811,479.298,311.062,478.714,311.398z"/>
		<path style="fill:#EB7553;" d="M398.385,363.674c-2.367,4.239,4.471,47.482,7.452,50.343c2.981,2.86,42.474,4.005,47.69,1.144
			s9.687-48.055,6.706-52.059C457.252,359.097,400.62,359.669,398.385,363.674z"/>
		<g>
			<path style="fill:#F0AA88;" d="M448.86,380.741c-1.358,0.884-2.557,2.073-3.866,3.018c-3.68,2.656-5.707-1.211-7.694-3.007
				c-1.308-1.183-3.272-1.277-4.779-0.419c-2.052,1.169-4.073,3.186-6.77,2.009c-1.642-0.717-2.557-2.596-4.043-3.54
				c-1.917-1.218-3.543-1.21-5.531-0.138c-2.311,1.246-3.05,4.19-7.038,2.432c-1.74-0.768-3.036-2.292-4.819-3.069
				c-2.144-0.935-3.848,0.05-5.595,1.061c0.042,0.366,0.084,0.734,0.128,1.105c0.429-0.185,0.858-0.388,1.311-0.635
				c3.012-1.642,5.275,0.696,7.284,2.222c1.829,1.389,3.714,1.61,5.82,0.831c0.761-0.281,1.488-0.94,2.12-1.429
				c2.763-2.14,5.465-1.234,7.748,1.016c1.109,1.093,2.821,2.367,4.486,2.113c3.945-0.602,7.077-4.429,10.76-0.314
				c1.413,1.579,2.876,2.296,4.974,2.063c2.049-0.228,3.913-2.187,5.411-3.426c5.037-4.165,8.344,0.074,11.553,3.478
				c0.075-0.762,0.146-1.52,0.212-2.272C457.198,380.495,453.729,377.571,448.86,380.741z"/>
			<path style="fill:#F0AA88;" d="M448.352,368.407c-1.931,0.971-3.676,2.348-5.332,3.721c-0.056,0.046-2.819-3.287-3.25-3.547
				c-3.125-1.888-5.918-0.722-8.493,1.453c-2.339,1.975-3.881,3.011-6.253,0.543c-0.945-0.983-2.164-2.147-3.516-2.539
				c-3.767-1.094-5.975,1.326-8.452,3.843c-1.751,1.781-4.317-1.729-5.501-2.48c-1.271-0.805-2.337-1.189-3.843-1.231
				c-2.105-0.059-4.047,1.394-5.693,3.096c0.083,1.386,0.205,2.906,0.36,4.523c1.018-0.843,2.042-1.677,3.134-2.43
				c2.634-1.817,3.972,0.178,5.688,1.784c1.867,1.749,4.008,2.688,6.532,1.955c2.644-0.768,4.888-5.929,7.81-3.041
				c2.076,2.052,3.897,3.653,6.979,3.361c2.538-0.24,4.476-2.267,6.234-3.904c1.754-1.633,6.194,3.696,8.616,3.696
				c0.829,0,1.826-0.4,2.432-0.96c2.091-1.93,4.539-3.544,7.203-4.567c3.011-1.155,5.993,2.707,8.02,5.101
				c0.126-2.511,0.181-4.831,0.155-6.827C457.569,366.953,453.916,365.61,448.352,368.407z"/>
		</g>
	</g>
	<g>
		<path style="fill:#77BFA0;" d="M84.922,285.079c-1.883,10.471-8.829,19.184-13.795,28.592c-4.211,7.977-7.064,16.669-8.399,25.59
			c-15.515-13.463-24.041-34.583-22.22-55.044c0.553-6.214,2.05-12.461,5.359-17.75c3.308-5.289,8.6-9.537,14.743-10.624
			c7.323-1.296,15.08,2.196,19.623,8.084C84.774,269.814,86.238,277.76,84.922,285.079z"/>
		<path style="fill:#77BFA0;" d="M96.162,343.898c-3.004,1.903-6.621,2.509-9.968,3.71c-4.458,1.599-8.511,4.314-11.686,7.828
			c-3.767-9.883-0.309-22.048,8.093-28.472c3.496-2.673,8.12-4.41,12.316-3.082c3.991,1.264,6.837,5.303,6.995,9.487
			C102.068,337.552,99.698,341.658,96.162,343.898z"/>
		<path style="fill:#77BFA0;" d="M20.029,318.007c2.423-2.411,6.313-2.845,9.587-1.863s6.047,3.161,8.585,5.451
			c3.58,3.231,6.919,6.851,9.026,11.189c4.204,8.653,3.543,20.02,10.789,26.348c-9.427,1.627-19.49-0.852-27.083-6.672
			c-7.593-5.82-12.602-14.893-13.481-24.419C17.125,324.486,17.498,320.525,20.029,318.007z"/>
		<path style="fill:#5D9880;" d="M93.464,334.153c-5.739,1.784-10.154,5.46-13.724,9.961c0.001-0.18,0-0.362,0.005-0.539
			c0.035-1.408,0.239-2.814,0.487-4.198c0.133-0.743-0.873-1.026-1.13-0.311c-0.706,1.963-1.242,4.786-0.823,7.008
			c-1.565,2.208-2.964,4.56-4.236,6.955c-2.469,4.65-4.458,9.582-6.577,14.397c-0.333,0.757-0.655,1.526-0.97,2.3
			c0.875-6.452,0.865-13.027-0.389-19.417c-2.169-11.056-5.774-21.108-4.511-32.593c0.429-3.901,0.979-7.869,1.467-11.861
			c0.202-0.004,0.393-0.089,0.492-0.308c2.034-4.522,5.552-8.068,8.051-12.304c0.474-0.803-0.684-1.413-1.214-0.71
			c-2.484,3.292-5.097,6.546-6.965,10.224c1.012-9.103,1.452-18.278-0.8-27.044c0.247,0.177,0.612,0.207,0.814-0.05
			c0.779-0.995,1.316-2.164,1.988-3.234c0.736-1.172,1.519-2.299,2.194-3.51c0.394-0.707-0.558-1.483-1.135-0.876
			c-1.706,1.797-3.707,4.318-4.063,6.876c-0.589-2.13-1.339-4.235-2.288-6.308c-0.295-0.645-1.22-0.084-0.944,0.552
			c2.884,6.651,3.708,13.517,3.551,20.45c-2.491-3.25-5.234-6.157-6.974-9.982c-0.24-0.529-1.096-0.151-0.928,0.391
			c1.385,4.478,4.596,7.983,7.845,11.241c-0.364,8.231-1.988,16.54-3.089,24.68c-1.068-3.501-2.838-6.923-3.96-10.232
			c-0.274-0.81-1.466-0.486-1.281,0.353c1.077,4.873,3.131,9.546,4.715,14.294c-0.813,8.609,0.913,16.996,2.994,25.336
			c1.996,7.999,2.094,15.119,1.466,22.73c-1.48-4.223-3.963-8.073-7.318-10.634c-5.331-4.07-11.417-6.984-16.455-11.454
			c-1.234-1.095-2.372-2.297-3.448-3.562c0.797-3.853,0.983-7.895-0.138-11.694c-0.195-0.661-1.137-0.38-1.017,0.28
			c0.61,3.364,0.412,6.752,0.117,10.13c-2.997-3.795-5.492-8.075-8.005-12.095c-0.214-0.342-0.731-0.04-0.54,0.316
			c0.579,1.074,1.163,2.124,1.753,3.161c-0.352-0.133-0.715-0.247-1.014-0.394c-0.854-0.419-1.771-0.947-2.485-1.576
			c-0.439-0.387-1.005,0.193-0.635,0.635c0.714,0.853,1.561,1.432,2.577,1.87c0.554,0.239,1.465,0.648,2.145,0.474
			c1.871,3.216,3.836,6.257,6.073,9.069c-0.008,0.09-0.016,0.179-0.024,0.269c-0.036,0.397,0.36,0.586,0.685,0.516
			c1.742,2.109,3.631,4.103,5.771,5.943c-0.716-0.106-1.44-0.177-2.159-0.252c-1.988-0.207-3.925-0.572-5.892-0.904
			c-0.76-0.128-1.33,0.91-0.557,1.321c3.085,1.637,7.335,1.346,10.778,1.594c0.589,0.447,1.189,0.886,1.813,1.313
			c5.131,3.512,10.461,6.376,13.795,11.835c2.994,4.902,3.057,10.474,3.707,15.968c0.043,0.361,0.296,0.646,0.602,0.801
			c-0.022,0.841,0,1.685,0.085,2.532c0.116,1.166,1.765,1.197,1.836,0c0.61-10.252,5.13-19.497,9.566-28.631
			c2.824-5.812,6.361-11.599,11.365-15.598c1.946,0.712,4.08,1.309,6.151,1.187c0.672-0.04,0.891-1.082,0.166-1.228
			c-1.672-0.337-3.324-0.554-4.959-0.973c1.809-1.259,3.794-2.295,5.996-3.023C94.796,335.315,94.407,333.859,93.464,334.153z"/>
		<path style="fill:#EB7553;" d="M38.333,373.716c-2.117,3.438,4,38.51,6.667,40.83c2.667,2.32,38,3.248,42.667,0.928
			c4.667-2.32,8.667-38.974,6-42.222C91,370.004,40.333,370.468,38.333,373.716z"/>
		<g>
			<path style="fill:#F0AA88;" d="M94.194,387.107c-2.583,0.27-5.162,0.57-7.714,0.739c-5.853,0.387-11.717,0.581-17.58,0.729
				c-9.959,0.253-19.923,0.301-29.884,0.46c0.077,0.544,0.157,1.092,0.24,1.644c9.881,0.061,19.761,0.196,29.644,0.108
				c7.965-0.071,16.697,0.277,25.014-0.513C94.02,389.2,94.114,388.141,94.194,387.107z"/>
			<path style="fill:#F0AA88;" d="M38.297,383.221c9.072,1.058,18.306,1.357,27.384,1.917c5.753,0.355,11.501,0.313,17.254,0.007
				c3.601-0.192,7.711-0.386,11.467-1.253c0.094-1.839,0.131-3.529,0.111-5.013c-3.841-0.152-7.828,0.259-11.579,0.266
				c-5.752,0.01-11.503-0.263-17.254-0.316c-9.15-0.085-18.569-0.801-27.717,0.294C38.03,380.352,38.143,381.731,38.297,383.221z"/>
		</g>
	</g>
	<g>
		<path style="fill:#EF504F;" d="M78.964,125.871V83.816c0-1.078,0.874-1.952,1.952-1.952H97.68c1.078,0,1.952,0.874,1.952,1.952
			v41.897c0,1.071-0.863,1.942-1.934,1.952l-16.765,0.157C79.849,127.832,78.964,126.956,78.964,125.871z"/>
		<path style="fill:#3785BA;" d="M116.949,125.877V92.601c0-1.078,0.874-1.952,1.952-1.952h21.454c1.078,0,1.952,0.874,1.952,1.952
			v33.144c0,1.073-0.867,1.945-1.94,1.952l-21.454,0.132C117.83,127.835,116.949,126.96,116.949,125.877z"/>
		<path style="fill:#FFC52B;" d="M98.66,125.029v-56.69c0-1.078,0.874-1.952,1.952-1.952h17.234c1.078,0,1.952,0.874,1.952,1.952
			v56.482c0,1.069-0.86,1.939-1.928,1.952l-17.234,0.208C99.548,126.993,98.66,126.116,98.66,125.029z"/>
		<path style="fill:#77BFA0;" d="M140.397,125.019V71.685c0-1.078,0.874-1.952,1.952-1.952h10.199c1.078,0,1.952,0.874,1.952,1.952
			v53.159c0,1.065-0.854,1.933-1.918,1.951l-10.199,0.174C141.291,126.989,140.397,126.11,140.397,125.019z"/>
		<path style="fill:#664353;" d="M71.498,125.525c-5.01,0.41-3.546,7.352,0,8.513c3.546,1.161,88.648,0,93.967,0
			c5.319,0,3.546-9.287,1.182-9.674C164.283,123.977,76.225,125.138,71.498,125.525z"/>
		<path style="fill:#FDF4F8;" d="M109.155,78.519c-2.545,0-4.669,2.124-4.669,4.669s2.124,4.67,4.669,4.67
			c2.546,0,4.67-2.124,4.67-4.67S111.7,78.519,109.155,78.519z"/>
		<path style="fill:#FDF4F8;" d="M103.097,82.904c-0.344-0.84-1.087-0.97-1.908-0.793c-0.525,0.113-1.616,0.413-1.329,1.203
			c0.247,0.682,0.884,0.755,1.513,0.89c0.4,0.086,0.857,0.061,1.218-0.151C102.928,83.855,103.265,83.313,103.097,82.904z"/>
		<path style="fill:#FDF4F8;" d="M119.711,82.075c-0.435-0.633-1.02-0.802-1.761-0.753c-0.534,0.035-1.283,0.106-1.723,0.421
			c-0.662,0.475-0.662,1.312,0,1.788c0.44,0.316,1.188,0.387,1.723,0.421c0.742,0.048,1.326-0.12,1.761-0.753
			C119.92,82.895,119.92,82.379,119.711,82.075z"/>
		<path style="fill:#FDF4F8;" d="M94.061,93.485c0.003-0.033,0.006-0.065,0.006-0.098c0-0.033-0.003-0.065-0.006-0.098
			c-0.004-0.05-0.008-0.1-0.017-0.149c-0.003-0.012-0.006-0.024-0.009-0.037c-0.108-0.506-0.505-0.938-1.127-0.894
			c-1.315-0.118-2.631-0.157-3.95-0.179c-1.128-0.019-2.47-0.25-3.546,0.132c-1.207,0.428-1.207,2.02,0,2.448
			c1.076,0.382,2.418,0.15,3.546,0.132c1.32-0.021,2.635-0.061,3.951-0.179c0.622,0.044,1.018-0.388,1.126-0.894
			c0.003-0.012,0.006-0.024,0.009-0.037C94.053,93.584,94.058,93.535,94.061,93.485z"/>
		<path style="fill:#FDF4F8;" d="M95.046,97.967c-2.297-0.022-4.594-0.024-6.89-0.034c-2.039-0.008-4.258-0.297-6.192,0.418
			c-1.02,0.377-1.02,1.695,0,2.072c1.934,0.715,4.153,0.426,6.192,0.418c2.297-0.009,4.594-0.012,6.89-0.034
			c0.929,0.044,1.385-0.688,1.369-1.42C96.431,98.655,95.975,97.923,95.046,97.967z"/>
		<path style="fill:#FDF4F8;" d="M137.013,96.005c-0.42-0.014-0.695-0.006-0.979,0.031c-4.265,0.137-8.527,0.259-12.784,0.554
			c-0.705,0.049-0.705,1.045,0,1.094c4.258,0.295,8.519,0.417,12.784,0.554c0.284,0.037,0.559,0.045,0.979,0.031
			c0.746,0.024,1.105-0.554,1.088-1.132C138.118,96.559,137.76,95.98,137.013,96.005z"/>
		<path style="fill:#FDF4F8;" d="M136.739,101.021c-2.061-0.471-4.25-0.211-6.354-0.147c-2.427,0.074-4.891,0.074-7.296,0.43
			c-0.581,0.086-0.581,1.082,0,1.168c2.077,0.307,4.181,0.308,6.276,0.39c2.412,0.094,5.009,0.433,7.373-0.107
			C137.599,102.557,137.599,101.217,136.739,101.021z"/>
		<path style="fill:#FDF4F8;" d="M135.916,120.285c-1.966-0.72-4.099-0.574-6.166-0.519c-2.344,0.063-4.666,0.126-7,0.359
			c-0.98,0.098-0.98,1.425,0,1.523c2.334,0.234,4.656,0.297,7,0.359c2.067,0.055,4.2,0.202,6.166-0.518
			C136.51,121.272,136.51,120.502,135.916,120.285z"/>
		<path style="fill:#FDF4F8;" d="M147.375,75.573c-1.671,0-3.065,1.394-3.065,3.065s1.394,3.065,3.065,3.065
			c1.671,0,3.065-1.394,3.065-3.065S149.046,75.573,147.375,75.573z"/>
		<path style="fill:#FDF4F8;" d="M149.182,85.228c-0.544-0.223-1.132-0.086-1.702-0.039c-0.663,0.055-1.319-0.018-1.98,0.038
			c-0.312,0.026-0.601,0.455-0.29,0.7c0.566,0.446,1.116,0.578,1.828,0.675c0.771,0.105,1.59,0.233,2.307-0.125
			C149.934,86.183,149.674,85.429,149.182,85.228z"/>
		<path style="fill:#FDF4F8;" d="M149.428,89.959c-0.927-0.776-2.29-0.622-3.428-0.658c-0.653-0.02-0.811,1.025-0.156,1.151
			c0.501,0.096,1.002,0.186,1.501,0.294c0.55,0.119,1.086,0.298,1.655,0.247C149.47,90.95,149.874,90.332,149.428,89.959z"/>
		<path style="fill:#FDF4F8;" d="M147.443,117.832c-0.038,0.01-0.076,0.02-0.113,0.03c-1.444,0.381-1.581,2.758,0,3.051
			c0.038,0.007,0.076,0.014,0.113,0.021c1.015,0.188,2.036-0.438,2.036-1.551C149.479,118.328,148.453,117.565,147.443,117.832z"/>
	</g>
</g>
</svg>